HIERARCHY
ROOT Hips
{
	OFFSET 0.000000 0.000000 0.000000
	CHANNELS 6 Xposition Yposition Zposition Zrotation Yrotation Xrotation 
	JOINT LHipJoint
	{
		OFFSET 0.000000 0.000000 0.000000
		CHANNELS 3 Zrotation Yrotation Xrotation
		JOINT LeftUpLeg
		{
			OFFSET 1.363060 -1.794630 0.839290
			CHANNELS 3 Zrotation Yrotation Xrotation
			JOINT LeftLeg
			{
				OFFSET 2.448110 -6.726130 0.000000
				CHANNELS 3 Zrotation Yrotation Xrotation
				JOINT LeftFoot
				{
					OFFSET 2.562200 -7.039590 0.000000
					CHANNELS 3 Zrotation Yrotation Xrotation
					JOINT LeftToeBase
					{
						OFFSET 0.157640 -0.433110 2.322550
						CHANNELS 3 Zrotation Yrotation Xrotation
						End Site
						{
							OFFSET 0.000000 0.000000 0.000000
						}
					}
				}
			}
		}
	}
	JOINT RHipJoint
	{
		OFFSET 0.000000 0.000000 0.000000
		CHANNELS 3 Zrotation Yrotation Xrotation
		JOINT RightUpLeg
		{
			OFFSET -1.305520 -1.794630 0.839290
			CHANNELS 3 Zrotation Yrotation Xrotation
			JOINT RightLeg
			{
				OFFSET -2.542530 -6.985550 0.000000
				CHANNELS 3 Zrotation Yrotation Xrotation
				JOINT RightFoot
				{
					OFFSET -2.568260 -7.056230 0.000000
					CHANNELS 3 Zrotation Yrotation Xrotation
					JOINT RightToeBase
					{
						OFFSET -0.164730 -0.452590 2.363150
						CHANNELS 3 Zrotation Yrotation Xrotation
						End Site
						{
							OFFSET 0.000000 0.000000 0.000000
						}
					}
				}
			}
		}
	}
	JOINT LowerBack
	{
		OFFSET 0.000000 0.000000 0.000000
		CHANNELS 3 Zrotation Yrotation Xrotation
		JOINT Spine
		{
			OFFSET 0.028270 2.035590 -0.193380
			CHANNELS 3 Zrotation Yrotation Xrotation
			JOINT Spine1
			{
				OFFSET 0.056720 2.048850 -0.042750
				CHANNELS 3 Zrotation Yrotation Xrotation
				JOINT Neck
				{
					OFFSET 0.000000 0.000000 0.000000
					CHANNELS 3 Zrotation Yrotation Xrotation
					JOINT Neck1
					{
						OFFSET -0.054170 1.746240 0.172020
						CHANNELS 3 Zrotation Yrotation Xrotation
						JOINT Head
						{
							OFFSET 0.104070 1.761360 -0.123970
							CHANNELS 3 Zrotation Yrotation Xrotation
							End Site
							{
								OFFSET 0.000000 0.000000 0.000000
							}
						}
					}
				}
				JOINT LeftShoulder
				{
					OFFSET 0.000000 0.000000 0.000000
					CHANNELS 3 Zrotation Yrotation Xrotation
					JOINT LeftArm
					{
						OFFSET 3.362410 1.200890 -0.311210
						CHANNELS 3 Zrotation Yrotation Xrotation
						JOINT LeftForeArm
						{
							OFFSET 4.983000 -0.000000 -0.000000
							CHANNELS 3 Zrotation Yrotation Xrotation
							JOINT LeftHand
							{
								OFFSET 3.483560 -0.000000 -0.000000
								CHANNELS 3 Zrotation Yrotation Xrotation
								JOINT LeftFingerBase
								{
									OFFSET 0.000000 0.000000 0.000000
									CHANNELS 3 Zrotation Yrotation Xrotation
									JOINT LeftHandIndex1
									{
										OFFSET 0.715260 -0.000000 -0.000000
										CHANNELS 3 Zrotation Yrotation Xrotation
										End Site
										{
											OFFSET 0.000000 0.000000 0.000000
										}
									}
								}
								JOINT LThumb
								{
									OFFSET 0.000000 0.000000 0.000000
									CHANNELS 3 Zrotation Yrotation Xrotation
									End Site
									{
										OFFSET 0.000000 0.000000 0.000000
									}
								}
							}
						}
					}
				}
				JOINT RightShoulder
				{
					OFFSET 0.000000 0.000000 0.000000
					CHANNELS 3 Zrotation Yrotation Xrotation
					JOINT RightArm
					{
						OFFSET -3.136600 1.374050 -0.404650
						CHANNELS 3 Zrotation Yrotation Xrotation
						JOINT RightForeArm
						{
							OFFSET -5.241900 -0.000000 -0.000000
							CHANNELS 3 Zrotation Yrotation Xrotation
							JOINT RightHand
							{
								OFFSET -3.444170 -0.000000 -0.000000
								CHANNELS 3 Zrotation Yrotation Xrotation
								JOINT RightFingerBase
								{
									OFFSET 0.000000 0.000000 0.000000
									CHANNELS 3 Zrotation Yrotation Xrotation
									JOINT RightHandIndex1
									{
										OFFSET -0.622530 -0.000000 -0.000000
										CHANNELS 3 Zrotation Yrotation Xrotation
										End Site
										{
											OFFSET 0.000000 0.000000 0.000000
										}
									}
								}
								JOINT RThumb
								{
									OFFSET 0.000000 0.000000 0.000000
									CHANNELS 3 Zrotation Yrotation Xrotation
									End Site
									{
										OFFSET 0.000000 0.000000 0.000000
									}
								}
							}
						}
					}
				}
			}
		}
	}
}
MOTION
Frames: 11
Frame Time: 0.008333
-10.800730 17.162822 -1.329591 2.136497 80.798465 7.209207 -10.269417 1.487361 2.573774 -12.932005 5.124924 -27.295594 -2.211733 0.047088 17.043099 1.364616 7.921836 -4.204119 0.643200 0.000001 -16.442400 10.501148 -3.889757 -1.206992 -0.494226 -14.619536 -0.195330 -0.247658 -2.674974 36.631062 -0.505946 4.607751 22.161889 2.485200 -0.000000 -85.348800 -4.090827 0.625531 -3.442689 -1.330796 0.779881 -2.959771 -5.025917 0.692100 3.027648 10.811728 -12.201119 -10.877062 -1.347687 -0.060509 -0.849748 0.000000 0.000000 0.000000 -3.860323 27.669132 1.807578 -80.896519 22.566908 3.547598 -3.878705 -18.269312 -0.018928 -5.840284 6.849045 -0.352709 -0.055557 -0.115717 -0.000000 0.000000 0.000000 0.000000 0.000000 0.000000 0.000000 9.980046 -6.072681 -0.030703 51.312105 16.471361 9.733359 1.971535 47.551482 0.014072 2.002297 6.685792 0.118021 0.051166 -0.186906 0.000000 0.000000 0.000000 0.000000 0.000000 0.000000 0.000000 
-10.621832 17.159508 -1.330034 3.868020 81.002001 8.787857 -10.270205 1.530951 2.551194 -13.225336 4.999892 -26.890303 -2.197707 0.101184 17.985769 1.387173 7.994314 -4.706587 0.557501 0.000000 -15.495099 10.645493 -3.775428 -1.323931 -1.046491 -15.396208 -1.645625 -0.460101 -2.767159 39.578099 -0.819028 2.818596 23.698665 1.822300 0.000001 -82.584700 -4.383809 0.446828 -3.334950 -1.385685 0.625748 -2.951433 -5.061697 0.537646 2.981139 10.906002 -12.303091 -10.899381 -1.386356 -0.063174 -0.856465 0.000000 0.000000 0.000000 -3.770390 27.297739 1.801338 -80.562222 21.884265 3.897562 -3.879680 -18.150808 -0.018451 -5.717026 6.792735 -0.342193 -0.056960 -0.112527 -0.000000 0.000000 0.000000 0.000000 0.000000 0.000000 0.000000 10.214236 -6.222044 -0.050855 52.118972 15.859661 9.453512 2.007148 47.404834 0.014217 1.985999 6.678233 0.116837 0.053177 -0.185162 0.000000 0.000000 0.000000 0.000000 0.000000 0.000000 0.000000 
-10.446585 17.154864 -1.331912 5.436665 81.215352 10.234152 -10.260549 1.562941 2.538894 -13.480859 4.772041 -26.455137 -2.177900 0.145972 18.866531 1.421434 8.117314 -5.279965 0.462800 -0.000000 -14.436200 10.773400 -3.633356 -1.444951 -1.446832 -16.053116 -3.145645 -0.639023 -2.855746 42.496833 -1.148481 0.494896 24.709468 0.779699 -0.000000 -78.905599 -4.608330 0.271866 -3.213742 -1.426704 0.470722 -2.941591 -5.094501 0.382607 2.928053 10.974336 -12.385980 -10.926289 -1.426106 -0.065860 -0.864531 0.000000 0.000000 0.000000 -3.684341 26.886393 1.800572 -80.203314 21.104924 4.278313 -3.877233 -18.024758 -0.017828 -5.538457 6.719449 -0.327475 -0.058639 -0.108719 -0.000000 0.000000 0.000000 0.000000 0.000000 0.000000 0.000000 10.411821 -6.348080 -0.067481 52.962051 15.173628 9.083628 2.041936 47.271426 0.014339 1.962867 6.663653 0.115053 0.055151 -0.183639 -0.000000 0.000000 0.000000 0.000000 0.000000 0.000000 0.000000 
-10.274869 17.149037 -1.335436 6.807204 81.426694 11.501509 -10.242575 1.585333 2.534249 -13.691773 4.443696 -25.965661 -2.151634 0.182760 19.670576 1.469577 8.306827 -5.910969 0.359800 0.000000 -13.350800 10.883351 -3.470305 -1.573904 -1.705598 -16.592453 -4.660941 -0.787121 -2.948335 45.327262 -1.477982 -2.194886 25.099864 -0.533700 -0.000000 -74.690201 -4.762676 0.104338 -3.071986 -1.453799 0.318728 -2.926711 -5.124088 0.231313 2.877650 11.025689 -12.480101 -10.965182 -1.465266 -0.068281 -0.876133 0.000000 0.000000 0.000000 -3.595396 26.463876 1.802828 -79.830680 20.201964 4.634612 -3.873731 -17.858119 -0.017080 -5.301905 6.631225 -0.308952 -0.060727 -0.104250 -0.000000 0.000000 0.000000 0.000000 0.000000 0.000000 0.000000 10.590024 -6.484057 -0.079497 53.816050 14.475702 8.680674 2.076721 47.114583 0.014417 1.909495 6.663835 0.111768 0.057384 -0.182356 -0.000000 0.000000 0.000000 0.000000 0.000000 0.000000 0.000000 
-10.106344 17.142446 -1.340907 7.895834 81.614234 12.503875 -10.220085 1.600353 2.534420 -13.850940 4.038798 -25.422307 -2.119608 0.212921 20.391157 1.532427 8.568139 -6.590281 0.247300 0.000000 -12.290900 10.973581 -3.293979 -1.705617 -1.819882 -16.996188 -6.186561 -0.911884 -3.049067 48.028845 -1.794943 -5.060127 24.836098 -1.961900 -0.000000 -70.193600 -4.837679 -0.048024 -2.914115 -1.466086 0.176706 -2.908187 -5.152280 0.090719 2.829196 11.060177 -12.576190 -11.012022 -1.504434 -0.070554 -0.890134 0.000000 0.000000 0.000000 -3.507305 26.035842 1.806372 -79.445456 19.183408 4.941313 -3.869116 -17.650508 -0.016209 -5.000172 6.521858 -0.286024 -0.063224 -0.099128 -0.000000 0.000000 0.000000 0.000000 0.000000 0.000000 0.000000 10.748400 -6.618299 -0.086717 54.681065 13.757395 8.232379 2.112535 46.927565 0.014474 1.836955 6.680133 0.107483 0.059750 -0.181258 -0.000000 0.000000 0.000000 0.000000 0.000000 0.000000 0.000000 
-9.940618 17.135595 -1.348352 8.650004 81.762705 13.185727 -10.196963 1.610388 2.535217 -13.958563 3.589074 -24.827107 -2.083452 0.237647 21.022231 1.609185 8.898186 -7.305201 0.124200 -0.000000 -11.324800 11.043461 -3.112211 -1.833984 -1.795659 -17.253711 -7.715445 -1.020080 -3.158641 50.557343 -2.086935 -7.883099 23.935280 -3.321200 -0.000000 -65.665800 -4.832102 -0.179723 -2.745238 -1.463851 0.049974 -2.887446 -5.180214 -0.033884 2.781389 11.077408 -12.658851 -11.060882 -1.544858 -0.072878 -0.904915 0.000000 0.000000 0.000000 -3.428725 25.617572 1.805346 -79.044821 18.055409 5.190748 -3.860416 -17.334831 -0.014830 -4.565976 6.165450 -0.246386 -0.066199 -0.092867 -0.000000 0.000000 0.000000 0.000000 0.000000 0.000000 0.000000 10.885853 -6.736029 -0.089962 55.561763 13.003499 7.717211 2.150300 46.702619 0.014533 1.760452 6.712952 0.103297 0.062055 -0.180239 -0.000000 0.000000 0.000000 0.000000 0.000000 0.000000 0.000000 
-9.777186 17.129041 -1.357533 9.052193 81.860152 13.527529 -10.176393 1.618195 2.532010 -14.020237 3.132688 -24.186070 -2.045613 0.257812 21.558617 1.697268 9.284383 -8.040435 -0.010000 -0.000000 -10.518700 11.093586 -2.931609 -1.951534 -1.644407 -17.359074 -9.243086 -1.116325 -3.274316 52.872140 -2.342593 -10.460782 22.459015 -4.444899 -0.000000 -61.275000 -4.751811 -0.290642 -2.571915 -1.448855 -0.061200 -2.865171 -5.210009 -0.142349 2.738738 11.084501 -12.739387 -11.111891 -1.585745 -0.075183 -0.920446 0.000000 0.000000 0.000000 -3.341880 25.201332 1.806419 -78.638934 16.828025 5.298209 -3.856252 -17.035721 -0.013769 -4.130715 6.000331 -0.216251 -0.069556 -0.086508 -0.000000 0.000000 0.000000 0.000000 0.000000 0.000000 0.000000 11.014406 -6.847248 -0.089519 56.455315 12.244993 7.151539 2.191929 46.406537 0.014604 1.676099 6.769730 0.098810 0.064414 -0.179262 -0.000000 0.000000 0.000000 0.000000 0.000000 0.000000 0.000000 
-9.615491 17.123377 -1.368047 9.121503 81.903299 13.547568 -10.160246 1.625889 2.519857 -14.045386 2.708551 -23.506707 -2.008800 0.273697 21.996050 1.792501 9.705617 -8.779272 -0.154600 0.000000 -9.924400 11.125882 -2.757755 -2.051104 -1.382553 -17.314196 -10.764880 -1.201272 -3.391734 54.937200 -2.551593 -12.629945 20.496963 -5.214001 -0.000000 -57.091600 -4.607603 -0.381501 -2.400337 -1.423064 -0.156868 -2.841390 -5.241624 -0.234728 2.704943 11.086600 -12.832350 -11.165190 -1.626813 -0.077442 -0.936742 0.000000 0.000000 0.000000 -3.254329 24.807193 1.801292 -78.219486 15.507868 5.265656 -3.854005 -16.692127 -0.012641 -3.635975 5.788709 -0.182812 -0.073329 -0.079558 -0.000000 0.000000 0.000000 0.000000 0.000000 0.000000 0.000000 11.144319 -6.973382 -0.086009 57.359877 11.514726 6.552975 2.239453 46.004180 0.014695 1.578923 6.855814 0.093923 0.066956 -0.178179 -0.000000 0.000000 0.000000 0.000000 0.000000 0.000000 0.000000 
-9.455046 17.119140 -1.379344 8.901695 81.889542 13.289314 -10.149560 1.635772 2.494891 -14.044308 2.357725 -22.799686 -1.975924 0.285039 22.331081 1.889343 10.133458 -9.504743 -0.307500 -0.000000 -9.565899 11.142459 -2.594839 -2.122882 -1.024466 -17.115987 -12.277909 -1.272759 -3.504722 56.722210 -2.707182 -14.294560 18.168020 -5.581801 0.000000 -53.228000 -4.407420 -0.454085 -2.240651 -1.388545 -0.238684 -2.820852 -5.278223 -0.313152 2.669616 11.075363 -12.876279 -11.202993 -1.671342 -0.080230 -0.948825 0.000000 0.000000 0.000000 -3.157581 24.413039 1.796204 -77.782923 14.141799 5.100870 -3.852584 -16.379887 -0.011705 -3.095439 5.680999 -0.151774 -0.077432 -0.072397 -0.000000 0.000000 0.000000 0.000000 0.000000 0.000000 0.000000 11.258275 -7.047960 -0.083239 58.312398 10.723963 5.816777 2.291953 45.516770 0.014836 1.509430 6.952396 0.090731 0.069084 -0.176898 -0.000000 0.000000 0.000000 0.000000 0.000000 0.000000 0.000000 
-9.295288 17.116743 -1.390695 8.490754 81.829457 12.850085 -10.143745 1.649392 2.453980 -14.030304 2.107833 -22.069040 -1.949675 0.291277 22.558683 1.981699 10.537396 -10.198569 -0.464199 -0.000000 -9.452500 11.146173 -2.445228 -2.163738 -0.596960 -16.785861 -13.772217 -1.324940 -3.608717 58.201639 -2.802116 -15.394181 15.576897 -5.552200 -0.000000 -49.604200 -4.171492 -0.514789 -2.096143 -1.348276 -0.311565 -2.800715 -5.317325 -0.382292 2.644299 11.063615 -12.934021 -11.236144 -1.716564 -0.083139 -0.959603 0.000000 0.000000 0.000000 -3.054547 24.043268 1.779798 -77.321036 12.723559 4.778686 -3.855266 -16.020397 -0.010589 -2.514257 5.399471 -0.116133 -0.081865 -0.064564 -0.000000 0.000000 0.000000 0.000000 0.000000 0.000000 0.000000 11.382561 -7.148250 -0.080167 59.290975 9.978436 5.026950 2.352205 44.878805 0.014992 1.427350 7.072819 0.086839 0.071431 -0.175276 -0.000000 0.000000 0.000000 0.000000 0.000000 0.000000 0.000000 
-9.135753 17.116473 -1.401412 7.985265 81.733305 12.325904 -10.142217 1.668387 2.396075 -14.013952 1.980661 -21.319154 -1.932407 0.291622 22.673775 2.063425 10.886604 -10.844164 -0.619000 0.000001 -9.562900 11.138815 -2.309686 -2.169816 -0.122250 -16.340282 -15.237927 -1.351546 -3.698915 59.356350 -2.834350 -15.932049 12.841954 -5.190400 0.000000 -46.242600 -3.914085 -0.569437 -1.972514 -1.304901 -0.380577 -2.782918 -5.359953 -0.447427 2.624982 11.049301 -12.986910 -11.256980 -1.763608 -0.086394 -0.966855 0.000000 0.000000 0.000000 -2.939635 23.685486 1.753567 -76.826314 11.292698 4.330220 -3.860676 -15.663910 -0.009350 -1.901430 4.979654 -0.079787 -0.086541 -0.056325 -0.000000 0.000000 0.000000 0.000000 0.000000 0.000000 0.000000 11.513635 -7.257350 -0.078648 60.310747 9.252034 4.138382 2.419634 44.089708 0.015159 1.340936 7.204967 0.082746 0.073846 -0.173230 -0.000000 0.000000 0.000000 0.000000 0.000000 0.000000 0.000000 
